<svg id="Capa_1" enable-background="new 0 0 512 512" height="512" viewBox="0 0 512 512" width="512" xmlns="http://www.w3.org/2000/svg" xmlns:xlink="http://www.w3.org/1999/xlink"><linearGradient id="SVGID_1_" gradientUnits="userSpaceOnUse" x1="0" x2="512" y1="256" y2="256"><stop offset="0" stop-color="#ffdbed" stop-opacity="0"/><stop offset="1" stop-color="#ffdbed"/></linearGradient><linearGradient id="SVGID_2_" gradientUnits="userSpaceOnUse" x1="256" x2="256" y1="211.704" y2="463.5"><stop offset=".0028" stop-color="#ff7eb8" stop-opacity="0"/><stop offset="1" stop-color="#ff7eb8" stop-opacity=".6"/></linearGradient><g><g><path d="m451.798 43.963c-160.556-97.869-410.51-8.611-439.594 61.949-38.908 94.393 26.578 110.528 38.743 187.874 9.761 62.061-51.182 121.495-16.394 176.282 37.882 59.663 163.465 44.681 211.198 16.447 87.376-51.682 43.309-112.012 84.684-187.299 39.408-71.707 116.244-42.625 160.961-99.99 42.5-54.521 14.311-122.402-39.598-155.263z" fill="url(#SVGID_1_)"/></g><g><g><g><ellipse cx="256" cy="337.602" fill="#02ffb3" rx="125.898" ry="125.898" transform="matrix(.707 -.707 .707 .707 -163.74 279.901)"/><ellipse cx="256" cy="337.602" fill="#97ffd2" rx="92.886" ry="92.886" transform="matrix(.707 -.707 .707 .707 -163.74 279.901)"/><circle cx="175.887" cy="193.398" fill="#8399fe" r="125.898"/><path d="m299.112 219.28c-11.932 57.116-62.574 100.014-123.225 100.014-15.147 0-29.663-2.67-43.112-7.573 11.931-57.116 62.574-100.014 123.225-100.014 15.147 0 29.663 2.67 43.112 7.573z" fill="#00d890"/><circle cx="336.113" cy="193.398" fill="#ff7eb8" r="125.898"/><path d="m379.225 311.72c-13.448 4.903-27.965 7.573-43.112 7.573-60.651 0-111.294-42.898-123.225-100.014 13.448-4.903 27.965-7.573 43.112-7.573 60.651.001 111.294 42.899 123.225 100.014z" fill="#fe2c8f"/><ellipse cx="256" cy="193.398" fill="#4369fd" rx="45.782" ry="97.119"/><g><path d="m299.112 219.28c-5.939 28.456-21.502 53.388-43.112 71.237-21.609-17.849-37.173-42.781-43.112-71.237 13.448-4.903 27.965-7.573 43.112-7.573s29.663 2.67 43.112 7.573z" fill="#fff"/></g><path d="" style="fill:none;stroke:#2626bc;stroke-width:10;stroke-linecap:round;stroke-linejoin:round;stroke-miterlimit:10"/></g><g fill="#d2deff"><circle cx="169.915" cy="154.215" r="5.971"/><circle cx="169.915" cy="172.279" r="5.971"/><circle cx="169.915" cy="190.342" r="5.971"/></g><g fill="#fff"><circle cx="274.063" cy="343.573" r="5.971"/><circle cx="256" cy="343.573" r="5.971"/><path d="m231.966 343.573c0-3.298 2.673-5.971 5.971-5.971s5.971 2.673 5.971 5.971-2.673 5.971-5.971 5.971-5.971-2.673-5.971-5.971z"/></g><g fill="#ffdbed"><path d="m363.407 170.53c-2.332-2.332-2.332-6.112 0-8.444s6.112-2.332 8.444 0 2.332 6.113 0 8.444-6.112 2.331-8.444 0z"/><path d="m350.635 183.302c-2.332-2.332-2.332-6.112 0-8.444s6.112-2.332 8.444 0 2.332 6.112 0 8.444-6.112 2.332-8.444 0z"/><path d="m337.862 196.075c-2.332-2.332-2.332-6.112 0-8.444s6.112-2.332 8.444 0 2.332 6.112 0 8.444c-2.331 2.331-6.112 2.331-8.444 0z"/></g></g><path d="m257.32 59.5c-1.28 0-2.559-.488-3.536-1.465-1.953-1.952-1.953-5.118 0-7.07l10-10c1.951-1.953 5.119-1.953 7.07 0 1.953 1.952 1.953 5.118 0 7.07l-10 10c-.974.977-2.254 1.465-3.534 1.465z" fill="#6583fe"/><path d="m393.862 429.957c-1.279 0-2.56-.488-3.535-1.465-1.953-1.952-1.953-5.118 0-7.07l10-10c1.951-1.953 5.119-1.953 7.07 0 1.953 1.952 1.953 5.118 0 7.07l-10 10c-.975.977-2.255 1.465-3.535 1.465z" fill="#01eca5"/><path d="m88 355.18c-2.761 0-5-2.238-5-5 0-3.309-2.691-6-6-6-2.761 0-5-2.238-5-5s2.239-5 5-5c3.309 0 6-2.691 6-6 0-2.762 2.239-5 5-5s5 2.238 5 5c0 3.309 2.691 6 6 6 2.761 0 5 2.238 5 5s-2.239 5-5 5c-3.309 0-6 2.691-6 6 0 2.761-2.239 5-5 5z" fill="#01eca5"/><g fill="#ff7eb8"><path d="m425 382.18c-2.762 0-5-2.238-5-5 0-3.309-2.691-6-6-6-2.762 0-5-2.238-5-5s2.238-5 5-5c3.309 0 6-2.691 6-6 0-2.762 2.238-5 5-5s5 2.238 5 5c0 3.309 2.691 6 6 6 2.762 0 5 2.238 5 5s-2.238 5-5 5c-3.309 0-6 2.691-6 6 0 2.761-2.238 5-5 5z"/><path d="m217.514 50.5c-2.761 0-5-2.238-5-5 0-3.309-2.691-6-6-6-2.761 0-5-2.238-5-5s2.239-5 5-5c3.309 0 6-2.691 6-6 0-2.762 2.239-5 5-5s5 2.238 5 5c0 3.309 2.691 6 6 6 2.761 0 5 2.238 5 5s-2.239 5-5 5c-3.309 0-6 2.691-6 6 0 2.762-2.239 5-5 5z"/></g></g><circle cx="256" cy="337.602" fill="url(#SVGID_2_)" r="125.898"/></g></svg>