<?xml version="1.0" encoding="iso-8859-1"?>
<!-- Generator: Adobe Illustrator 19.0.0, SVG Export Plug-In . SVG Version: 6.00 Build 0)  -->
<svg version="1.1" id="Capa_1" xmlns="http://www.w3.org/2000/svg" xmlns:xlink="http://www.w3.org/1999/xlink" x="0px" y="0px"
	 viewBox="0 0 512 512" style="enable-background:new 0 0 512 512;" xml:space="preserve">
<path style="fill:#FEDB41;" d="M512,151v226c0,24.899-20.099,45-45,45H44.099C19.799,422,0,402.199,0,377.599V151l30-31h452L512,151
	z"/>
<path style="fill:#FFCC33;" d="M512,151v226c0,24.899-20.099,45-45,45H256V120h226L512,151z"/>
<path style="fill:#FEA832;" d="M512,105v46H0V45C0,20.099,20.099,0,45,0h132.4c17.1,0,32.699,9.6,40.199,24.899l13.5,26.7
	C233.8,56.7,238.9,60,244.6,60H467C491.901,60,512,80.099,512,105z"/>
<g>
	<path style="fill:#994C0F;" d="M437,211h-61c-8.291,0-15-6.709-15-15s6.709-15,15-15h61c8.291,0,15,6.709,15,15
		S445.291,211,437,211z"/>
	<path style="fill:#994C0F;" d="M437,271h-61c-8.291,0-15-6.709-15-15s6.709-15,15-15h61c8.291,0,15,6.709,15,15
		C452,264.291,445.291,271,437,271z"/>
</g>
<path style="fill:#0D70B2;" d="M331,286v60c0,8.399-6.599,15-15,15s-15-6.601-15-15v-60c0-24.901-20.099-45-45-45s-45,20.099-45,45
	v60c0,8.399-6.599,15-15,15s-15-6.601-15-15v-60c0-41.4,33.6-75,75-75S331,244.6,331,286z"/>
<path style="fill:#095C92;" d="M331,286v60c0,8.399-6.599,15-15,15s-15-6.601-15-15v-60c0-24.901-20.099-45-45-45v-30
	C297.4,211,331,244.6,331,286z"/>
<path style="fill:#FEA832;" d="M316,331H196c-24.901,0-45,21.099-45,46v90c0,24.899,20.099,45,45,45h120c24.901,0,45-20.101,45-45
	v-90C361,352.099,340.901,331,316,331z"/>
<path style="fill:#FE9923;" d="M361,377v90c0,24.899-20.099,45-45,45h-60V331h60C340.901,331,361,352.099,361,377z"/>
<path style="fill:#0D70B2;" d="M271,407v30c0,8.399-6.599,15-15,15s-15-6.601-15-15v-30c0-8.401,6.599-15,15-15S271,398.599,271,407
	z"/>
<path style="fill:#095C92;" d="M271,407v30c0,8.399-6.599,15-15,15v-60C264.401,392,271,398.599,271,407z"/>
<path style="fill:#FE9923;" d="M512,105v46H256V60h211C491.901,60,512,80.099,512,105z"/>
<g>
</g>
<g>
</g>
<g>
</g>
<g>
</g>
<g>
</g>
<g>
</g>
<g>
</g>
<g>
</g>
<g>
</g>
<g>
</g>
<g>
</g>
<g>
</g>
<g>
</g>
<g>
</g>
<g>
</g>
</svg>
