<svg xmlns="http://www.w3.org/2000/svg" xmlns:xlink="http://www.w3.org/1999/xlink" viewBox="0 0 1432 1153.26"><defs><style>.cls-1{fill:url(#linear-gradient);}.cls-2{fill:#fff;}.cls-3{fill:#f2f2f2;}.cls-4{fill:#f5f4f9;}.cls-5{fill:#ff9b98;}.cls-6{fill:#f8cc8f;}.cls-7{fill:#5ddf89;}.cls-29,.cls-30,.cls-8{fill:#00bfa6;}.cls-9{fill:#f5f5f5;}.cls-10{fill:#3f3d56;}.cls-11,.cls-13,.cls-14,.cls-15,.cls-22,.cls-26,.cls-29{opacity:0.5;}.cls-12,.cls-15{fill:#47e6b1;}.cls-13,.cls-18,.cls-19{fill:#4d8af0;}.cls-13,.cls-14,.cls-15,.cls-19,.cls-22,.cls-23,.cls-26,.cls-27,.cls-29,.cls-30{isolation:isolate;}.cls-14{fill:#f55f44;}.cls-16{fill:url(#linear-gradient-2);}.cls-17{fill:#e0e0e0;}.cls-19,.cls-23,.cls-27,.cls-30{opacity:0.3;}.cls-20{fill:url(#linear-gradient-3);}.cls-21,.cls-22,.cls-23{fill:#ff5252;}.cls-24{fill:url(#linear-gradient-4);}.cls-25,.cls-26,.cls-27{fill:#69f0ae;}.cls-28{fill:url(#linear-gradient-5);}</style><linearGradient id="linear-gradient" y1="520" x2="1432" y2="520" gradientUnits="userSpaceOnUse"><stop offset="0" stop-color="#009788"/><stop offset="0.01" stop-color="#009788"/><stop offset="0.58" stop-color="#008576"/><stop offset="1" stop-color="#007f70"/></linearGradient><linearGradient id="linear-gradient-2" x1="1200.2" y1="-4780.35" x2="1200.2" y2="-4639.67" gradientTransform="matrix(0, 1, 1, 0, 5953.66, -290.95)" gradientUnits="userSpaceOnUse"><stop offset="0" stop-color="gray" stop-opacity="0.25"/><stop offset="0.54" stop-color="gray" stop-opacity="0.12"/><stop offset="1" stop-color="gray" stop-opacity="0.1"/></linearGradient><linearGradient id="linear-gradient-3" x1="356.29" y1="-4313.8" x2="356.29" y2="-4173.65" gradientTransform="matrix(1, 0, 0, -1, 864.8, -3323.65)" xlink:href="#linear-gradient-2"/><linearGradient id="linear-gradient-4" x1="-98.26" y1="-3838.71" x2="-98.26" y2="-3698.56" gradientTransform="matrix(1, 0, 0, -1, 1308.76, -2840.67)" xlink:href="#linear-gradient-2"/><linearGradient id="linear-gradient-5" x1="-320.1" y1="-3515.62" x2="-320.1" y2="-3375.46" gradientTransform="matrix(1, 0, 0, -1, 1524.42, -2509.52)" xlink:href="#linear-gradient-2"/></defs><g id="Layer_2" data-name="Layer 2"><g id="Layer_1-2" data-name="Layer 1"><path class="cls-1" d="M0,805.6s266.26,527.4,798,0c0,0,134.25-154.48,349,0-.74-.29,112.62,70.78,284.91,82.87C1430.51,890.65,1432,0,1432,0H0Z"/><rect class="cls-2" x="136.94" y="828" width="453.06" height="266.48" rx="11.96"/><path class="cls-3" d="M136.94,855.26H264.77a0,0,0,0,1,0,0v239.22a0,0,0,0,1,0,0H148.7a11.76,11.76,0,0,1-11.76-11.76V855.26A0,0,0,0,1,136.94,855.26Z"/><path class="cls-4" d="M150.11,828H576.83A13.17,13.17,0,0,1,590,841.17v14.09a0,0,0,0,1,0,0H138.15a1.21,1.21,0,0,1-1.21-1.21V841.17A13.17,13.17,0,0,1,150.11,828Z"/><circle class="cls-5" cx="157.71" cy="842.48" r="3.85"/><circle class="cls-6" cx="170.36" cy="842.48" r="3.85"/><circle class="cls-7" cx="182.43" cy="842.48" r="3.85"/><rect class="cls-3" x="281.22" y="882.05" width="198.33" height="10.34" rx="3.59"/><rect class="cls-3" x="281.22" y="905.08" width="162.61" height="10.34" rx="3.59"/><rect class="cls-3" x="281.22" y="928.11" width="162.61" height="10.34" rx="3.59"/><rect class="cls-3" x="281.22" y="951.13" width="162.61" height="10.34" rx="3.59"/><rect class="cls-3" x="281.22" y="974.16" width="198.33" height="10.34" rx="3.59"/><rect class="cls-3" x="281.22" y="997.19" width="162.61" height="10.34" rx="3.59"/><rect class="cls-3" x="281.22" y="1020.22" width="162.61" height="10.34" rx="3.59"/><rect class="cls-3" x="281.22" y="1043.25" width="162.61" height="10.34" rx="3.59"/><rect class="cls-2" x="148.69" y="882.05" width="104.34" height="10.34" rx="3.59"/><rect class="cls-2" x="148.69" y="900.38" width="85.55" height="10.34" rx="3.59"/><rect class="cls-2" x="148.69" y="918.71" width="85.55" height="10.34" rx="3.59"/><rect class="cls-2" x="148.69" y="937.04" width="85.55" height="10.34" rx="3.59"/><rect class="cls-2" x="148.69" y="955.36" width="104.34" height="10.34" rx="3.59"/><rect class="cls-2" x="148.69" y="973.69" width="85.55" height="10.34" rx="3.59"/><rect class="cls-8" x="896.61" y="688.29" width="143.44" height="208.3" rx="9.27" transform="translate(-151.04 233.29) rotate(-12.75)"/><circle class="cls-2" cx="889.46" cy="733.99" r="4.14"/><circle class="cls-2" cx="893.6" cy="749.17" r="4.14"/><circle class="cls-2" cx="920.5" cy="860.21" r="4.14"/><circle class="cls-2" cx="924.64" cy="875.39" r="4.14"/><rect class="cls-9" x="922.26" y="763.38" width="86.13" height="14.36" transform="translate(-146.28 232.09) rotate(-12.75)"/><rect class="cls-10" x="1014.04" y="741.56" width="246.63" height="299.15" transform="translate(-241.37 458.93) rotate(-20.67)"/><rect class="cls-8" x="1089.75" y="967.68" width="110.75" height="4.57" transform="translate(-268.7 466.75) rotate(-20.67)"/><rect class="cls-8" x="1097.15" y="980.82" width="181.55" height="4.57" transform="translate(-270.59 482.7) rotate(-20.67)"/><rect class="cls-8" x="1217.87" y="931.4" width="46.81" height="4.57" transform="translate(-249.7 498.35) rotate(-20.67)"/><rect class="cls-8" x="1096.65" y="991.79" width="46.81" height="4.57" transform="translate(-278.83 459.45) rotate(-20.67)"/><rect class="cls-8" x="1159.68" y="968" width="46.81" height="4.57" transform="translate(-266.37 480.17) rotate(-20.67)"/><rect class="cls-8" x="1222.7" y="944.22" width="46.81" height="4.57" transform="translate(-253.92 500.89) rotate(-20.67)"/><rect class="cls-8" x="1050.16" y="817.25" width="137.02" height="50.24" transform="translate(-225.36 449.19) rotate(-20.67)"/><g class="cls-11"><rect class="cls-12" x="1277.78" y="809.17" width="2.07" height="11.73"/><rect class="cls-12" x="1272.95" y="814" width="11.73" height="2.07"/></g><g class="cls-11"><rect class="cls-12" x="910.84" y="946.43" width="2.07" height="11.73"/><rect class="cls-12" x="906.01" y="951.26" width="11.73" height="2.07"/></g><g class="cls-11"><rect class="cls-12" x="994.99" y="1029.89" width="2.07" height="11.73"/><rect class="cls-12" x="990.16" y="1034.71" width="11.73" height="2.07"/></g><path class="cls-13" d="M1297.23,1079.06a2.52,2.52,0,0,1-1.41-3.06.92.92,0,0,0,0-.28h0a1.27,1.27,0,0,0-2.28-.85h0a1.23,1.23,0,0,0-.14.25,2.52,2.52,0,0,1-3.06,1.41l-.28,0h0a1.27,1.27,0,0,0-1.35,1.19,1.24,1.24,0,0,0,.5,1.09h0a.89.89,0,0,0,.25.14,2.54,2.54,0,0,1,1.41,3.07,2.33,2.33,0,0,0-.05.28h0a1.27,1.27,0,0,0,1.19,1.34,1.24,1.24,0,0,0,1.09-.5h0a.89.89,0,0,0,.14-.25,2.54,2.54,0,0,1,3.07-1.41.87.87,0,0,0,.28,0h0a1.27,1.27,0,0,0,.84-2.28h0A1.23,1.23,0,0,0,1297.23,1079.06Z"/><path class="cls-13" d="M1244.81,1148.72a2.52,2.52,0,0,1-1.41-3.06.92.92,0,0,0,0-.28h0a1.27,1.27,0,0,0-2.28-.84h0a1.16,1.16,0,0,0-.14.24,2.53,2.53,0,0,1-3.06,1.42,1.4,1.4,0,0,0-.28-.06h0a1.28,1.28,0,0,0-.85,2.29h0l.25.14a2.54,2.54,0,0,1,1.42,3.06,1.27,1.27,0,0,0-.06.28h0a1.27,1.27,0,0,0,2.28.84h0a.89.89,0,0,0,.14-.25,2.54,2.54,0,0,1,3.07-1.41,1.27,1.27,0,0,0,.28.06h0a1.28,1.28,0,0,0,.84-2.29h0A2,2,0,0,0,1244.81,1148.72Z"/><path class="cls-13" d="M785.24,978.13a2.56,2.56,0,0,1-1.42-3.07,1.27,1.27,0,0,0,.06-.28h0a1.27,1.27,0,0,0-1.19-1.34,1.24,1.24,0,0,0-1.09.5h0a1.28,1.28,0,0,0-.15.25,2.52,2.52,0,0,1-3.06,1.41.87.87,0,0,0-.28-.05h0a1.27,1.27,0,0,0-1.35,1.19,1.3,1.3,0,0,0,.51,1.09h0a1.23,1.23,0,0,0,.25.14,2.52,2.52,0,0,1,1.41,3.06,1.4,1.4,0,0,0-.06.28h0a1.28,1.28,0,0,0,1.2,1.35,1.26,1.26,0,0,0,1.09-.5h0a2,2,0,0,0,.14-.25,2.54,2.54,0,0,1,3.06-1.42,1.4,1.4,0,0,0,.28.06h0a1.27,1.27,0,0,0,.85-2.28h0A1,1,0,0,0,785.24,978.13Z"/><circle class="cls-14" cx="1071.55" cy="733.99" r="4.14"/><circle class="cls-13" cx="843.25" cy="842.28" r="4.14"/><circle class="cls-15" cx="1333.86" cy="956.32" r="4.14"/><circle class="cls-14" cx="793.12" cy="880.45" r="4.14"/><g class="cls-11"><rect class="cls-16" x="1173.31" y="887.74" width="140.68" height="43.01" transform="translate(322.22 2143.9) rotate(-89.44)"/></g><rect class="cls-17" x="1174.6" y="888.81" width="138.8" height="40.89" transform="translate(322.57 2144.26) rotate(-89.44)"/><rect class="cls-18" x="1230.1" y="842.09" width="28.91" height="28.91" transform="translate(375.82 2092.62) rotate(-89.44)"/><rect class="cls-13" x="1229.76" y="876.99" width="28.91" height="28.91" transform="translate(340.58 2126.84) rotate(-89.44)"/><rect class="cls-19" x="1229.41" y="911.89" width="28.91" height="28.91" transform="translate(305.35 2161.05) rotate(-89.44)"/><g class="cls-11"><rect class="cls-20" x="1199.59" y="850" width="43.01" height="140.15" transform="translate(-222.66 416.91) rotate(-17.78)"/></g><rect class="cls-9" x="1200.98" y="850.83" width="40.89" height="138.27" transform="translate(-222.62 417.01) rotate(-17.78)"/><rect class="cls-21" x="1190.98" y="855.56" width="28.91" height="28.91" transform="translate(-208.12 409.74) rotate(-17.78)"/><rect class="cls-22" x="1201.64" y="888.8" width="28.91" height="28.91" transform="translate(-217.77 414.58) rotate(-17.78)"/><rect class="cls-23" x="1212.3" y="922.03" width="28.91" height="28.91" transform="translate(-227.41 419.43) rotate(-17.78)"/><g class="cls-11"><rect class="cls-24" x="1188.99" y="857.89" width="43.01" height="140.15" transform="translate(-299.94 715.81) rotate(-29.48)"/></g><rect class="cls-9" x="1190.36" y="858.66" width="40.89" height="138.27" transform="matrix(0.87, -0.49, 0.49, 0.87, -299.81, 715.93)"/><rect class="cls-25" x="1170.55" y="867.68" width="28.91" height="28.91" transform="translate(-280.68 697.32) rotate(-29.48)"/><rect class="cls-26" x="1187.72" y="898.06" width="28.91" height="28.91" transform="translate(-293.41 709.71) rotate(-29.48)"/><rect class="cls-27" x="1204.9" y="928.45" width="28.91" height="28.91" transform="translate(-306.14 722.09) rotate(-29.48)"/><g class="cls-11"><rect class="cls-28" x="1182.81" y="865.94" width="43.01" height="140.15" transform="translate(-320.65 904.77) rotate(-36.68)"/></g><rect class="cls-2" x="1184.15" y="866.67" width="40.89" height="138.27" transform="translate(-320.47 904.89) rotate(-36.68)"/><rect class="cls-8" x="1158.81" y="879.29" width="28.91" height="28.91" transform="translate(-301.55 877.85) rotate(-36.68)"/><rect class="cls-29" x="1179.66" y="907.28" width="28.91" height="28.91" transform="translate(-314.14 895.84) rotate(-36.68)"/><rect class="cls-30" x="1200.51" y="935.27" width="28.91" height="28.91" transform="matrix(0.8, -0.6, 0.6, 0.8, -326.73, 913.84)"/></g></g></svg>