<svg xmlns="http://www.w3.org/2000/svg" xmlns:xlink="http://www.w3.org/1999/xlink" viewBox="0 0 1706 1153.26"><defs><style>.cls-1{fill:url(#linear-gradient);}.cls-2{fill:#fff;}.cls-3{fill:#f2f2f2;}.cls-4{fill:#f5f4f9;}.cls-5{fill:#ff9b98;}.cls-6{fill:#f8cc8f;}.cls-7{fill:#5ddf89;}.cls-29,.cls-30,.cls-8{fill:#00bfa6;}.cls-9{fill:#f5f5f5;}.cls-10{fill:#3f3d56;}.cls-11,.cls-13,.cls-14,.cls-15,.cls-22,.cls-26,.cls-29{opacity:0.5;}.cls-12,.cls-15{fill:#47e6b1;}.cls-13,.cls-18,.cls-19{fill:#4d8af0;}.cls-13,.cls-14,.cls-15,.cls-19,.cls-22,.cls-23,.cls-26,.cls-27,.cls-29,.cls-30{isolation:isolate;}.cls-14{fill:#f55f44;}.cls-16{fill:url(#linear-gradient-2);}.cls-17{fill:#e0e0e0;}.cls-19,.cls-23,.cls-27,.cls-30{opacity:0.3;}.cls-20{fill:url(#linear-gradient-3);}.cls-21,.cls-22,.cls-23{fill:#ff5252;}.cls-24{fill:url(#linear-gradient-4);}.cls-25,.cls-26,.cls-27{fill:#69f0ae;}.cls-28{fill:url(#linear-gradient-5);}</style><linearGradient id="linear-gradient" y1="520" x2="1706" y2="520" gradientUnits="userSpaceOnUse"><stop offset="0" stop-color="#009788"/><stop offset="0.01" stop-color="#009788"/><stop offset="0.58" stop-color="#008576"/><stop offset="1" stop-color="#007f70"/></linearGradient><linearGradient id="linear-gradient-2" x1="1350.83" y1="-7554.28" x2="1350.83" y2="-7413.61" gradientTransform="matrix(0, 1, 1, 0, 8864.59, -441.58)" gradientUnits="userSpaceOnUse"><stop offset="0" stop-color="gray" stop-opacity="0.25"/><stop offset="0.54" stop-color="gray" stop-opacity="0.12"/><stop offset="1" stop-color="gray" stop-opacity="0.1"/></linearGradient><linearGradient id="linear-gradient-3" x1="69.68" y1="-7021.52" x2="69.68" y2="-6881.37" gradientTransform="matrix(1, 0, 0, -1, 1288.42, -6031.38)" xlink:href="#linear-gradient-2"/><linearGradient id="linear-gradient-4" x1="-643.79" y1="-6433.16" x2="-643.79" y2="-6293" gradientTransform="matrix(1, 0, 0, -1, 1991.29, -5435.11)" xlink:href="#linear-gradient-2"/><linearGradient id="linear-gradient-5" x1="-1011.64" y1="-6014.95" x2="-1011.64" y2="-5874.8" gradientTransform="matrix(1, 0, 0, -1, 2352.96, -5008.86)" xlink:href="#linear-gradient-2"/></defs><g id="Layer_2" data-name="Layer 2"><g id="Layer_1-2" data-name="Layer 1"><path class="cls-1" d="M0,805.6s317.21,527.4,950.74,0c0,0,159.94-154.48,415.84,0-.89-.29,134.17,70.78,339.42,82.87C1704.22,890.65,1706,0,1706,0H0Z"/><rect class="cls-2" x="273.94" y="828" width="453.06" height="266.48" rx="11.96"/><path class="cls-3" d="M273.94,855.26H401.77a0,0,0,0,1,0,0v239.22a0,0,0,0,1,0,0H285.7a11.76,11.76,0,0,1-11.76-11.76V855.26A0,0,0,0,1,273.94,855.26Z"/><path class="cls-4" d="M287.11,828H713.83A13.17,13.17,0,0,1,727,841.17v14.09a0,0,0,0,1,0,0H275.15a1.21,1.21,0,0,1-1.21-1.21V841.17A13.17,13.17,0,0,1,287.11,828Z"/><circle class="cls-5" cx="294.71" cy="842.48" r="3.85"/><circle class="cls-6" cx="307.36" cy="842.48" r="3.85"/><circle class="cls-7" cx="319.43" cy="842.48" r="3.85"/><rect class="cls-3" x="418.22" y="882.05" width="198.33" height="10.34" rx="3.59"/><rect class="cls-3" x="418.22" y="905.08" width="162.61" height="10.34" rx="3.59"/><rect class="cls-3" x="418.22" y="928.11" width="162.61" height="10.34" rx="3.59"/><rect class="cls-3" x="418.22" y="951.13" width="162.61" height="10.34" rx="3.59"/><rect class="cls-3" x="418.22" y="974.16" width="198.33" height="10.34" rx="3.59"/><rect class="cls-3" x="418.22" y="997.19" width="162.61" height="10.34" rx="3.59"/><rect class="cls-3" x="418.22" y="1020.22" width="162.61" height="10.34" rx="3.59"/><rect class="cls-3" x="418.22" y="1043.25" width="162.61" height="10.34" rx="3.59"/><rect class="cls-2" x="285.69" y="882.05" width="104.34" height="10.34" rx="3.59"/><rect class="cls-2" x="285.69" y="900.38" width="85.55" height="10.34" rx="3.59"/><rect class="cls-2" x="285.69" y="918.71" width="85.55" height="10.34" rx="3.59"/><rect class="cls-2" x="285.69" y="937.04" width="85.55" height="10.34" rx="3.59"/><rect class="cls-2" x="285.69" y="955.36" width="104.34" height="10.34" rx="3.59"/><rect class="cls-2" x="285.69" y="973.69" width="85.55" height="10.34" rx="3.59"/><rect class="cls-8" x="1033.61" y="688.29" width="143.44" height="208.3" rx="9.27" transform="translate(-147.66 263.53) rotate(-12.75)"/><circle class="cls-2" cx="1026.46" cy="733.99" r="4.14"/><circle class="cls-2" cx="1030.6" cy="749.17" r="4.14"/><circle class="cls-2" cx="1057.5" cy="860.21" r="4.14"/><circle class="cls-2" cx="1061.64" cy="875.39" r="4.14"/><rect class="cls-9" x="1059.26" y="763.38" width="86.13" height="14.36" transform="translate(-142.9 262.33) rotate(-12.75)"/><rect class="cls-10" x="1151.04" y="741.56" width="246.63" height="299.15" transform="translate(-232.55 507.29) rotate(-20.67)"/><rect class="cls-8" x="1226.75" y="967.68" width="110.75" height="4.57" transform="translate(-259.88 515.11) rotate(-20.67)"/><rect class="cls-8" x="1234.15" y="980.82" width="181.55" height="4.57" transform="translate(-261.77 531.07) rotate(-20.67)"/><rect class="cls-8" x="1354.87" y="931.4" width="46.81" height="4.57" transform="translate(-240.88 546.72) rotate(-20.67)"/><rect class="cls-8" x="1233.65" y="991.79" width="46.81" height="4.57" transform="translate(-270.01 507.81) rotate(-20.67)"/><rect class="cls-8" x="1296.68" y="968" width="46.81" height="4.57" transform="translate(-257.55 528.53) rotate(-20.67)"/><rect class="cls-8" x="1359.7" y="944.22" width="46.81" height="4.57" transform="translate(-245.1 549.25) rotate(-20.67)"/><rect class="cls-8" x="1187.16" y="817.25" width="137.02" height="50.24" transform="translate(-216.54 497.55) rotate(-20.67)"/><g class="cls-11"><rect class="cls-12" x="1414.78" y="809.17" width="2.07" height="11.73"/><rect class="cls-12" x="1409.95" y="814" width="11.73" height="2.07"/></g><g class="cls-11"><rect class="cls-12" x="1047.84" y="946.43" width="2.07" height="11.73"/><rect class="cls-12" x="1043.01" y="951.26" width="11.73" height="2.07"/></g><g class="cls-11"><rect class="cls-12" x="1131.99" y="1029.89" width="2.07" height="11.73"/><rect class="cls-12" x="1127.16" y="1034.71" width="11.73" height="2.07"/></g><path class="cls-13" d="M1434.23,1079.06a2.52,2.52,0,0,1-1.41-3.06.92.92,0,0,0,0-.28h0a1.27,1.27,0,0,0-2.28-.85h0a1.23,1.23,0,0,0-.14.25,2.52,2.52,0,0,1-3.06,1.41l-.28,0h0a1.27,1.27,0,0,0-1.35,1.19,1.24,1.24,0,0,0,.5,1.09h0a.89.89,0,0,0,.25.14,2.54,2.54,0,0,1,1.41,3.07,2.33,2.33,0,0,0-.05.28h0a1.27,1.27,0,0,0,1.19,1.34,1.24,1.24,0,0,0,1.09-.5h0a.89.89,0,0,0,.14-.25,2.54,2.54,0,0,1,3.07-1.41.87.87,0,0,0,.28,0h0a1.27,1.27,0,0,0,.84-2.28h0A1.23,1.23,0,0,0,1434.23,1079.06Z"/><path class="cls-13" d="M1381.81,1148.72a2.52,2.52,0,0,1-1.41-3.06.92.92,0,0,0,0-.28h0a1.27,1.27,0,0,0-2.28-.84h0a1.16,1.16,0,0,0-.14.24,2.53,2.53,0,0,1-3.06,1.42,1.4,1.4,0,0,0-.28-.06h0a1.28,1.28,0,0,0-.85,2.29h0l.25.14a2.54,2.54,0,0,1,1.42,3.06,1.27,1.27,0,0,0-.06.28h0a1.27,1.27,0,0,0,2.28.84h0a.89.89,0,0,0,.14-.25,2.54,2.54,0,0,1,3.07-1.41,1.27,1.27,0,0,0,.28.06h0a1.28,1.28,0,0,0,.84-2.29h0A2,2,0,0,0,1381.81,1148.72Z"/><path class="cls-13" d="M922.24,978.13a2.56,2.56,0,0,1-1.42-3.07,1.27,1.27,0,0,0,.06-.28h0a1.27,1.27,0,0,0-1.19-1.34,1.24,1.24,0,0,0-1.09.5h0a1.28,1.28,0,0,0-.15.25,2.52,2.52,0,0,1-3.06,1.41.87.87,0,0,0-.28-.05h0a1.27,1.27,0,0,0-1.35,1.19,1.3,1.3,0,0,0,.51,1.09h0a1.23,1.23,0,0,0,.25.14,2.52,2.52,0,0,1,1.41,3.06,1.4,1.4,0,0,0-.06.28h0a1.28,1.28,0,0,0,1.2,1.35,1.26,1.26,0,0,0,1.09-.5h0a2,2,0,0,0,.14-.25,2.54,2.54,0,0,1,3.06-1.42,1.4,1.4,0,0,0,.28.06h0a1.27,1.27,0,0,0,.85-2.28h0A1,1,0,0,0,922.24,978.13Z"/><circle class="cls-14" cx="1208.55" cy="733.99" r="4.14"/><circle class="cls-13" cx="980.25" cy="842.28" r="4.14"/><circle class="cls-15" cx="1470.86" cy="956.32" r="4.14"/><circle class="cls-14" cx="930.12" cy="880.45" r="4.14"/><g class="cls-11"><rect class="cls-16" x="1310.31" y="887.74" width="140.68" height="43.01" transform="translate(457.87 2280.89) rotate(-89.44)"/></g><rect class="cls-17" x="1311.6" y="888.81" width="138.8" height="40.89" transform="translate(458.22 2281.25) rotate(-89.44)"/><rect class="cls-18" x="1367.1" y="842.09" width="28.91" height="28.91" transform="translate(511.48 2229.61) rotate(-89.44)"/><rect class="cls-13" x="1366.76" y="876.99" width="28.91" height="28.91" transform="translate(476.24 2263.83) rotate(-89.44)"/><rect class="cls-19" x="1366.41" y="911.89" width="28.91" height="28.91" transform="translate(441 2298.04) rotate(-89.44)"/><g class="cls-11"><rect class="cls-20" x="1336.59" y="850" width="43.01" height="140.15" transform="translate(-216.12 458.75) rotate(-17.78)"/></g><rect class="cls-9" x="1337.98" y="850.83" width="40.89" height="138.27" transform="translate(-216.07 458.86) rotate(-17.78)"/><rect class="cls-21" x="1327.98" y="855.56" width="28.91" height="28.91" transform="translate(-201.58 451.58) rotate(-17.78)"/><rect class="cls-22" x="1338.64" y="888.8" width="28.91" height="28.91" transform="translate(-211.22 456.43) rotate(-17.78)"/><rect class="cls-23" x="1349.3" y="922.03" width="28.91" height="28.91" transform="translate(-220.86 461.27) rotate(-17.78)"/><g class="cls-11"><rect class="cls-24" x="1325.99" y="857.89" width="43.01" height="140.15" transform="translate(-282.2 783.22) rotate(-29.48)"/></g><rect class="cls-9" x="1327.36" y="858.66" width="40.89" height="138.27" transform="matrix(0.87, -0.49, 0.49, 0.87, -282.08, 783.35)"/><rect class="cls-25" x="1307.55" y="867.68" width="28.91" height="28.91" transform="translate(-262.95 764.74) rotate(-29.48)"/><rect class="cls-26" x="1324.72" y="898.06" width="28.91" height="28.91" transform="translate(-275.68 777.13) rotate(-29.48)"/><rect class="cls-27" x="1341.9" y="928.45" width="28.91" height="28.91" transform="translate(-288.4 789.51) rotate(-29.48)"/><g class="cls-11"><rect class="cls-28" x="1319.81" y="865.94" width="43.01" height="140.15" transform="translate(-293.52 986.6) rotate(-36.68)"/></g><rect class="cls-2" x="1321.15" y="866.67" width="40.89" height="138.27" transform="translate(-293.34 986.73) rotate(-36.68)"/><rect class="cls-8" x="1295.81" y="879.29" width="28.91" height="28.91" transform="translate(-274.42 959.69) rotate(-36.68)"/><rect class="cls-29" x="1316.66" y="907.28" width="28.91" height="28.91" transform="translate(-287.01 977.68) rotate(-36.68)"/><rect class="cls-30" x="1337.51" y="935.27" width="28.91" height="28.91" transform="matrix(0.8, -0.6, 0.6, 0.8, -299.6, 995.68)"/></g></g></svg>