<svg xmlns="http://www.w3.org/2000/svg" viewBox="0 0 130.2 36.94"><defs><style>.cls-1{fill:#fefefe;}.cls-2{font-size:33.5px;fill:#fff;font-family:FredokaOne-Regular, Fredoka One;}.cls-3{letter-spacing:-0.03em;}.cls-4{letter-spacing:0em;}.cls-5{letter-spacing:-0.01em;}</style></defs><g id="Layer_2" data-name="Layer 2"><g id="Layer_1-2" data-name="Layer 1"><path class="cls-1" d="M31.94,0a26.67,26.67,0,0,1-6.28,3.7c-2.56,1.18-5.2,2.23-7.78,3.38A7.56,7.56,0,0,0,15,8.89a9.46,9.46,0,0,0-2,5.16c-.12.91-.14,1.82-.22,2.88-2.19-1.65-2.13-4-2.22-6.41A22.81,22.81,0,0,0,5.7,16.58a13.2,13.2,0,0,0-.94,9.48,1,1,0,0,1-.21.77C3.65,27.91,2.72,29,1.79,30L.32,31.8a2.53,2.53,0,0,1-.11.56c-.39,1-.28,1.32.68,1.81H1.2l1-.79h0c.09-.14.18-.29.28-.43l0,0,.27-.43h0c.06-.09.12-.18.17-.27H3c0-.09.11-.18.16-.28h0c.14-.16.27-.33.41-.5a.09.09,0,0,1,0-.08l.55-.66.15-.25L4.59,30a.16.16,0,0,1,.09,0l.11-.19a3.35,3.35,0,0,1,3.79-1.65,16.15,16.15,0,0,0,10.17-1.82,6.81,6.81,0,0,1,.89-.34h0c1.11-.91,2.27-1.76,3.32-2.74.88-.82,1.64-1.79,2.46-2.69h0l1.89-3h0l.17-.42h0l.27-.46h0L28.54,15c.05-.1.09-.21.14-.31.5-1.49,1-3,1.49-4.46A42.21,42.21,0,0,0,32,.6a2.09,2.09,0,0,1,.11-.43Z"/><path class="cls-1" d="M22.23,32.07H6.28c-.42,0-.83.06-1.25.09l-.18.21c-.27,1.14-.14,1.4.93,1.8l6.11,0,10.45,0c1.1-.14,1.54-.47,1.51-1.14S23.36,32.08,22.23,32.07Z"/><text class="cls-2" transform="translate(40.65 29.03)"><tspan class="cls-3">k</tspan><tspan class="cls-4" x="16.95" y="0">ee</tspan><tspan class="cls-5" x="55.35" y="0">p</tspan><tspan x="74.51" y="0">t</tspan></text></g></g></svg>