<?xml version="1.0" encoding="iso-8859-1"?>
<!-- Generator: Adobe Illustrator 21.0.0, SVG Export Plug-In . SVG Version: 6.00 Build 0)  -->
<svg xmlns="http://www.w3.org/2000/svg" xmlns:xlink="http://www.w3.org/1999/xlink" version="1.1" id="Capa_1" x="0px" y="0px" viewBox="0 0 512 512" style="enable-background:new 0 0 512 512;" xml:space="preserve" width="512" height="512">
<g>
	<path style="fill:#B3E59F;" d="M126.78,116.808c-13.789-8.417-32.477-2.913-42.28,9.076V92.095   c14.458-14.366,12.673-44.52-7.238-53.439C57.965,48.054,55.518,76.444,69.5,91.32v34.44c-9.807-11.875-28.461-17.373-42.179-8.952   c-3.142,21.974,22.06,39.727,42.179,34.515v34.833h15v-34.86C104.583,156.57,130.004,138.826,126.78,116.808z"/>
	<rect x="0" y="300.25" style="fill:#FFE09F;" width="165.5" height="80"/>
	<rect x="0" y="380.25" style="fill:#FFE09F;" width="165.5" height="78"/>
	<rect x="125.5" y="300.25" style="fill:#F6D190;" width="40" height="80"/>
	<rect x="125.5" y="380.25" style="fill:#F6D190;" width="40" height="78"/>
	<g>
		<path style="fill:#857E87;" d="M171.426,16.134c0-6.84,5.544-12.384,12.383-12.384h279.809c6.84,0,12.383,5.544,12.383,12.384    v182.545c0,6.839-5.543,12.383-12.383,12.383H183.809c-6.839,0-12.383-5.544-12.383-12.383V16.134z"/>
		<path style="fill:#5D5360;" d="M463.617,3.75h-40c6.84,0,12.383,5.544,12.383,12.384v182.545c0,6.839-5.543,12.383-12.383,12.383    h40c6.84,0,12.383-5.544,12.383-12.383V16.134C476,9.294,470.457,3.75,463.617,3.75z"/>
		<g>
			<rect x="292.055" y="209.063" style="fill:#DFDDE0;" width="63.316" height="44.312"/>
		</g>
		<rect x="335.371" y="209.063" style="fill:#C8C5C9;" width="20" height="44.312"/>
		<g>
			<path style="fill:#F0EEF0;" d="M171.426,198.679c0,6.839,5.544,12.383,12.383,12.383h279.809c6.84,0,12.383-5.544,12.383-12.383     v-29.617H171.426V198.679z"/>
		</g>
		<path style="fill:#DFDDE0;" d="M436,169.063v29.617c0,6.839-5.543,12.383-12.383,12.383h40c6.84,0,12.383-5.544,12.383-12.383    v-29.617H436z"/>
	</g>
	<path style="fill:#FF8086;" d="M119.953,180.656c2.791,0,5.054,2.287,5.002,5.077c-0.662,35.437-8.882,66.423-49.454,66.423   c-41.531,0-48.88-30.992-49.46-66.432c-0.046-2.787,2.214-5.068,5.002-5.068H119.953z"/>
	<path style="fill:#E5646E;" d="M119.953,180.656h-30c2.791,0,5.054,2.287,5.002,5.078c-0.572,30.599-6.798,57.86-34.601,64.739   c4.465,1.088,9.478,1.684,15.147,1.684c40.573,0,48.792-30.986,49.454-66.423C125.007,182.943,122.744,180.656,119.953,180.656z"/>
	<g>
		<g>
			<path style="fill:#E2A975;" d="M504.5,245.605H7.5c-4.143,0-7.5,3.358-7.5,7.5v56.645h497v191c0,9.673,15,9.673,15,0V253.105     C512,248.963,508.643,245.605,504.5,245.605z"/>
			<path style="fill:#C38C66;" d="M504.5,245.605h-40c4.143,0,7.5,3.358,7.5,7.5v41.645v15h25v191c0,9.673,15,9.673,15,0V253.105     C512,248.963,508.643,245.605,504.5,245.605z"/>
			<rect x="0" y="372.75" style="fill:#E2A975;" width="165.5" height="15"/>
			<rect x="125.5" y="372.75" style="fill:#C38C66;" width="40" height="15"/>
			<path style="fill:#E2A975;" d="M0,450.75v15l0,34.686c0,9.805,15,10.168,15,0.314v-35h135.5v35.245c0,9.613,15,9.242,15-0.245     v-50H0z"/>
			<g>
				<path style="fill:#C38C66;" d="M125.5,450.75v15h25v35.154c0,9.677,15,9.382,15-0.154v-50H125.5z"/>
			</g>
		</g>
		<g>
			<path style="fill:#C38C66;" d="M111.5,348.75h-57c-9.673,0-9.673-15,0-15h57C121.173,333.75,121.173,348.75,111.5,348.75z"/>
		</g>
		<g>
			<path style="fill:#C38C66;" d="M111.5,426.75h-57c-9.673,0-9.673-15,0-15h57C121.173,411.75,121.173,426.75,111.5,426.75z"/>
		</g>
	</g>
	<g>
		<path style="fill:#B3E59F;" d="M438.107,81.656v215.5c0,0-49-20.5-49-108.5S438.107,81.656,438.107,81.656z"/>
		<path style="fill:#B3E59F;" d="M438.527,338.416c-0.389,34.112-6.184,55.74-44.42,55.74h-162c0,0-6-56,72-56c58,0,134,0,134,0"/>
		<path style="fill:#95D6A4;" d="M440,493.25h-96v-91.594h50.106c17.218,0,29.664-4.151,38.052-12.69    c14.699-14.965,14.251-40.022,13.684-71.747c-0.116-6.454-0.235-235.563-0.235-235.563c0-9.673-15-9.673-15,0    c0,0,0.121,229.312,0.237,235.832c0.505,28.209,0.904,50.491-9.387,60.967c-5.421,5.519-14.367,8.201-27.351,8.201h-162    c-9.673,0-9.673,15,0,15H329v13.5h-29.5c-9.673,0-9.673,15,0,15H329v63.094h-96c-9.673,0-9.673,15,0,15h207    C449.673,508.25,449.673,493.25,440,493.25z"/>
	</g>
</g>















</svg>
